HIERARCHY
ROOT Hips
{
	OFFSET -0.001795 -0.223333 0.028219
	CHANNELS 6 Xposition Yposition Zposition Zrotation Yrotation Xrotation 
	JOINT LeftUpLeg
	{
		OFFSET 0.069520 -0.091406 -0.006815
		CHANNELS 3 Zrotation Yrotation Xrotation
		JOINT LeftLeg
		{
			OFFSET 0.034277 -0.375199 -0.004496
			CHANNELS 3 Zrotation Yrotation Xrotation
			JOINT LeftFoot
			{
				OFFSET -0.013596 -0.397961 -0.043693
				CHANNELS 3 Zrotation Yrotation Xrotation
				JOINT LeftToe
				{
					OFFSET 0.026358 -0.055791 0.119288
					CHANNELS 3 Zrotation Yrotation Xrotation
					End Site
					{
						OFFSET 0.000000 0.000000 0.000000
					}
				}
			}
		}
	}
	JOINT RightUpLeg
	{
		OFFSET -0.067670 -0.090522 -0.004320
		CHANNELS 3 Zrotation Yrotation Xrotation
		JOINT RightLeg
		{
			OFFSET -0.038290 -0.382569 -0.008850
			CHANNELS 3 Zrotation Yrotation Xrotation
			JOINT RightFoot
			{
				OFFSET 0.015774 -0.398415 -0.042312
				CHANNELS 3 Zrotation Yrotation Xrotation
				JOINT RightToe
				{
					OFFSET -0.025372 -0.048144 0.123348
					CHANNELS 3 Zrotation Yrotation Xrotation
					End Site
					{
						OFFSET 0.000000 0.000000 0.000000
					}
				}
			}
		}
	}
	JOINT Spine
	{
		OFFSET -0.002533 0.108963 -0.026696
		CHANNELS 3 Zrotation Yrotation Xrotation
		JOINT Spine1
		{
			OFFSET 0.005487 0.135180 0.001092
			CHANNELS 3 Zrotation Yrotation Xrotation
			JOINT Spine2
			{
				OFFSET 0.001457 0.052922 0.025425
				CHANNELS 3 Zrotation Yrotation Xrotation
				JOINT Neck
				{
					OFFSET -0.002778 0.213870 -0.042857
					CHANNELS 3 Zrotation Yrotation Xrotation
					JOINT Head
					{
						OFFSET 0.005152 0.064970 0.051349
						CHANNELS 3 Zrotation Yrotation Xrotation
						End Site
						{
							OFFSET 0.000000 0.000000 0.000000
						}
					}
				}
				JOINT LeftShoulder
				{
					OFFSET 0.078845 0.121749 -0.034090
					CHANNELS 3 Zrotation Yrotation Xrotation
					JOINT LeftArm
					{
						OFFSET 0.090977 0.030469 -0.008868
						CHANNELS 3 Zrotation Yrotation Xrotation
						JOINT LeftForeArm
						{
							OFFSET 0.259612 -0.012772 -0.027456
							CHANNELS 3 Zrotation Yrotation Xrotation
							JOINT LeftHand
							{
								OFFSET 0.249234 0.008986 -0.001171
								CHANNELS 3 Zrotation Yrotation Xrotation
								End Site
								{
									OFFSET 0.000000 0.000000 0.000000
								}
							}
						}
					}
				}
				JOINT RightShoulder
				{
					OFFSET -0.081759 0.118833 -0.038615
					CHANNELS 3 Zrotation Yrotation Xrotation
					JOINT RightArm
					{
						OFFSET -0.096012 0.032551 -0.009143
						CHANNELS 3 Zrotation Yrotation Xrotation
						JOINT RightForeArm
						{
							OFFSET -0.253742 -0.013329 -0.021401
							CHANNELS 3 Zrotation Yrotation Xrotation
							JOINT RightHand
							{
								OFFSET -0.255298 0.007772 -0.005559
								CHANNELS 3 Zrotation Yrotation Xrotation
								End Site
								{
									OFFSET 0.000000 0.000000 0.000000
								}
							}
						}
					}
				}
			}
		}
	}
}
MOTION
Frames: 14
Frame Time: 0.050000
-0.716455 0.873798 1.305255 -165.499442 -58.299502 171.124656 1.223161 12.732656 -26.033683 22.269261 19.514195 47.260605 -18.367212 -18.294565 -14.736476 0.000000 0.000000 0.000000 -11.935326 14.318283 -37.721704 30.831986 13.458646 39.837791 -35.628244 -36.215874 40.108783 0.000000 0.000000 0.000000 54.152113 16.829995 69.966442 -2.136530 -0.535406 -23.235467 -37.461524 -51.655996 43.208849 4.381461 -7.009970 -30.070801 0.000000 0.000000 0.000000 -17.954946 -17.522837 33.059069 -19.766170 -46.739573 3.070440 42.580172 -33.589428 -13.540058 0.000000 0.000000 0.000000 16.601669 13.292708 -30.178773 52.186290 -21.863497 -10.244248 25.981423 35.520128 1.696585 0.000000 0.000000 0.000000 
-0.722863 0.873040 1.310271 -166.368555 -57.567956 170.698998 1.816553 11.960394 -24.119629 22.204659 20.897743 47.966238 -18.718956 -18.461405 -15.192043 0.000000 0.000000 0.000000 -12.155915 14.258794 -37.474926 31.435762 13.638025 39.928881 -37.613349 -35.901370 42.574559 0.000000 0.000000 0.000000 54.614073 16.976674 69.365680 -1.604145 -0.632658 -23.182619 -36.718806 -50.900943 42.361861 5.436112 -7.052572 -31.461367 0.000000 0.000000 0.000000 -19.561981 -17.951689 34.689778 -18.762494 -46.382478 2.051723 41.551953 -34.844117 -14.321663 0.000000 0.000000 0.000000 15.834157 14.524022 -29.110392 52.818282 -20.285601 -9.860630 21.018817 34.967099 0.304827 0.000000 0.000000 0.000000 
-0.729881 0.874471 1.314577 -167.382979 -55.890678 170.291857 2.552642 10.951081 -21.384017 22.093357 22.017302 47.615240 -19.523096 -18.080399 -15.704997 0.000000 0.000000 0.000000 -11.903085 14.161521 -37.051847 29.889418 13.660440 38.726492 -38.609703 -33.696456 44.141807 0.000000 0.000000 0.000000 54.655272 17.362543 68.791472 -2.258042 -0.809672 -22.347867 -34.569741 -50.277649 40.788303 5.702401 -6.616113 -31.341096 0.000000 0.000000 0.000000 -20.841824 -17.558011 35.843130 -17.752350 -46.539266 1.228107 38.996620 -35.489794 -14.184014 0.000000 0.000000 0.000000 16.258558 15.742912 -29.502953 51.181271 -20.495487 -8.833870 19.636470 35.106643 0.203563 0.000000 0.000000 0.000000 
-0.738014 0.879171 1.317071 -167.276051 -55.505793 168.796521 2.829051 9.405382 -18.507900 20.803678 22.191494 45.716339 -19.319240 -16.264417 -15.706457 0.000000 0.000000 0.000000 -12.202861 13.461020 -35.849160 30.118557 13.505387 37.449869 -39.547271 -31.963786 45.907615 0.000000 0.000000 0.000000 54.694818 17.345265 67.510547 -1.885892 -0.777761 -22.835125 -33.464684 -49.310778 40.531322 5.649641 -6.796194 -33.762592 0.000000 0.000000 0.000000 -22.732931 -17.949317 37.826092 -14.036038 -47.349773 -0.315435 37.862947 -35.160492 -14.462719 0.000000 0.000000 0.000000 14.641794 15.824526 -28.145819 52.386746 -18.410128 -8.986344 16.446695 34.158760 -0.875107 0.000000 0.000000 0.000000 
-0.747887 0.884565 1.316982 -167.571431 -54.293574 168.377453 3.297899 8.318087 -15.444958 17.429582 22.726265 42.473170 -18.664211 -13.135059 -16.602825 0.000000 0.000000 0.000000 -13.985158 13.851512 -36.134489 31.605865 13.494006 36.069500 -40.791082 -29.597475 50.889944 0.000000 0.000000 0.000000 51.975609 17.742273 64.968081 -1.466721 -0.952435 -22.917478 -30.714992 -47.180051 37.973821 4.188735 -6.517373 -33.635947 0.000000 0.000000 0.000000 -24.375172 -17.222234 39.637342 -11.864677 -47.627959 -1.660805 35.653323 -36.102088 -14.660497 0.000000 0.000000 0.000000 14.851656 16.821929 -29.385282 51.345633 -21.201710 -9.548020 16.703905 33.981222 -0.595122 0.000000 0.000000 0.000000 
-0.759387 0.890167 1.313806 -167.739242 -54.025034 167.538299 4.106973 7.212146 -11.524842 13.349829 22.393092 38.186073 -17.934364 -9.517861 -17.678409 0.000000 0.000000 0.000000 -14.156059 13.463336 -35.314355 31.313991 13.304360 33.868087 -43.435237 -26.989531 54.763529 0.000000 0.000000 0.000000 50.732992 17.640129 62.717636 -1.783075 -0.961953 -22.993820 -28.338295 -46.593835 36.680679 2.528194 -6.175983 -34.017125 0.000000 0.000000 0.000000 -25.749576 -17.132593 41.683396 -9.478119 -47.860446 -2.912608 36.358198 -37.076674 -15.925995 0.000000 0.000000 0.000000 13.493015 16.236717 -29.364144 52.396212 -21.208627 -10.466415 16.981963 33.807097 -0.788293 0.000000 0.000000 0.000000 
-0.772367 0.895305 1.307386 -167.499080 -53.392483 166.605374 5.395160 6.811409 -7.500447 8.460793 21.793539 33.243756 -17.259027 -5.708111 -18.990220 0.000000 0.000000 0.000000 -13.929844 13.088116 -34.502600 29.680902 12.967383 31.831134 -43.739508 -24.034509 55.962981 0.000000 0.000000 0.000000 49.217971 17.420468 59.540998 -1.429989 -1.409075 -21.684939 -26.773881 -45.444758 34.696765 2.364041 -5.431261 -34.848582 0.000000 0.000000 0.000000 -25.968485 -16.183081 42.417308 -8.948481 -48.731081 -3.404077 37.232389 -38.072622 -16.783979 0.000000 0.000000 0.000000 12.503571 15.611646 -29.384846 52.647022 -22.023781 -11.698821 19.839564 33.370970 -0.166791 0.000000 0.000000 0.000000 
-0.786490 0.898145 1.297637 -168.823176 -53.279645 167.047138 5.837285 6.256670 -3.584930 4.122348 21.475425 28.921501 -17.012417 -2.929701 -19.469332 0.000000 0.000000 0.000000 -13.586794 12.229797 -32.735553 24.668622 11.647677 27.897360 -45.332913 -16.896346 57.985855 0.000000 0.000000 0.000000 47.046562 16.986713 55.762523 -1.656418 -1.731349 -20.944959 -26.550632 -44.471889 34.711661 3.956617 -4.313746 -35.802378 0.000000 0.000000 0.000000 -25.867344 -15.977846 44.529788 -6.328686 -49.273684 -4.437993 37.905881 -38.454797 -17.781497 0.000000 0.000000 0.000000 11.878572 16.746333 -31.274373 52.522957 -24.719177 -12.935912 21.566567 34.212453 0.174707 0.000000 0.000000 0.000000 
-0.801415 0.898272 1.284721 -169.769006 -51.537912 167.393273 6.229027 6.283238 -0.179958 1.325477 21.631607 25.947204 -15.682348 1.947595 -20.993617 0.000000 0.000000 0.000000 -10.889682 11.000418 -30.790055 18.615226 10.246062 24.712866 -46.945421 -6.760864 59.724694 0.000000 0.000000 0.000000 43.763447 16.687141 52.036415 -2.495846 -1.817356 -20.261435 -24.580905 -42.464652 35.432101 3.000092 -3.575730 -37.038685 0.000000 0.000000 0.000000 -23.766814 -16.111071 45.987969 -4.940100 -51.821377 -4.504057 42.077912 -36.486439 -18.429846 0.000000 0.000000 0.000000 11.238365 17.632181 -34.024347 52.258435 -25.890083 -13.011211 23.563932 35.274472 0.688126 0.000000 0.000000 0.000000 
-0.816544 0.896514 1.269011 -171.551539 -49.822203 167.672252 6.399001 6.551405 4.022632 -0.914914 22.556124 23.923344 -15.000273 4.651684 -20.075334 0.000000 0.000000 0.000000 -9.355265 10.065923 -29.177204 15.152133 9.757165 24.417003 -47.263336 -1.223441 59.050266 0.000000 0.000000 0.000000 41.340447 16.480673 49.644144 -2.723549 -1.872422 -19.740345 -23.864172 -41.723133 35.167647 3.711346 -2.504648 -37.679850 0.000000 0.000000 0.000000 -22.164002 -15.758454 47.439263 -1.147863 -53.990173 -5.785920 41.312081 -35.797343 -17.844671 0.000000 0.000000 0.000000 9.803190 19.230334 -35.244938 52.148930 -26.632109 -13.656378 26.848308 37.281967 1.299142 0.000000 0.000000 0.000000 
-0.831218 0.894254 1.250969 -172.311195 -47.140806 167.628160 7.492610 7.892902 7.545255 -1.776320 24.388924 23.595070 -16.609916 4.617821 -22.022150 0.000000 0.000000 0.000000 -6.809776 8.925720 -27.371830 13.811441 9.827150 23.472453 -50.313153 8.370569 60.835376 0.000000 0.000000 0.000000 37.284395 15.990518 46.683946 -2.027338 -1.825346 -19.541540 -22.347250 -38.729606 34.288893 3.705069 -1.549265 -36.972856 0.000000 0.000000 0.000000 -20.752257 -15.867123 49.799482 4.053485 -56.466157 -8.139941 43.272374 -32.954837 -17.463528 0.000000 0.000000 0.000000 9.839181 21.174282 -38.938365 50.206048 -29.134518 -13.171295 31.066800 40.328152 3.146559 0.000000 0.000000 0.000000 
-0.844808 0.894529 1.230792 -172.581906 -44.272933 167.310861 8.989688 9.612744 10.420474 -1.460100 25.196284 23.681032 -17.875080 4.106520 -20.514877 0.000000 0.000000 0.000000 -5.239363 8.004312 -25.712720 13.715882 10.002005 22.068601 -50.717854 24.142095 67.404482 0.000000 0.000000 0.000000 33.959477 15.376181 43.856036 -1.582451 -1.565086 -19.378909 -21.892359 -37.012954 35.379941 5.066284 0.398635 -37.418091 0.000000 0.000000 0.000000 -16.647540 -15.874517 53.060334 12.869431 -59.631342 -11.705457 46.650518 -27.000059 -15.719149 0.000000 0.000000 0.000000 9.074937 23.447167 -44.465794 48.820511 -31.533470 -12.656138 36.570102 41.782013 5.417781 0.000000 0.000000 0.000000 
-0.856914 0.897299 1.208806 -172.958886 -40.716217 168.238595 10.448901 11.441219 12.794664 -2.096874 25.630941 22.624441 -19.226052 3.617343 -18.649456 0.000000 0.000000 0.000000 -3.893171 7.727798 -25.138860 15.006826 10.829239 21.095586 -50.583818 34.442969 70.459143 0.000000 0.000000 0.000000 30.524341 14.710383 41.355850 -1.787827 -1.185568 -19.115474 -20.073532 -35.358341 34.259686 5.019809 1.968220 -37.264401 0.000000 0.000000 0.000000 -13.508023 -16.161073 58.317139 25.147994 -61.370986 -18.103735 50.128705 -19.145028 -13.466613 0.000000 0.000000 0.000000 8.102028 26.640250 -49.340787 48.171912 -34.245103 -12.627913 40.288301 41.917847 6.888526 0.000000 0.000000 0.000000 
-0.867662 0.900473 1.184889 -172.691973 -37.718471 168.773971 11.400715 12.773745 14.256697 -0.787389 25.016129 22.649254 -20.302215 3.870642 -15.992965 0.000000 0.000000 0.000000 -1.973941 7.221438 -24.401639 15.356867 11.381415 19.937910 -47.226961 48.555830 77.392349 0.000000 0.000000 0.000000 28.973506 14.121385 39.148314 -1.606618 -0.824174 -19.330672 -20.286811 -34.497013 35.038541 5.406913 3.632315 -37.953806 0.000000 0.000000 0.000000 -7.776702 -15.651415 65.978563 46.142902 -60.356924 -27.798209 52.886970 -6.926806 -8.452343 0.000000 0.000000 0.000000 5.828816 28.437279 -56.188958 48.693639 -38.346457 -14.275713 44.900998 41.697265 8.258596 0.000000 0.000000 0.000000 
